<svg xmlns="http://www.w3.org/2000/svg" xmlns:xlink="http://www.w3.org/1999/xlink" viewBox="0 0 582.79 212.6"><defs><style>.cls-1,.cls-2,.cls-3,.cls-4,.cls-5,.cls-6,.cls-7,.cls-8{fill-rule:evenodd;}.cls-1{fill:url(#GradientFill_1);}.cls-2{fill:#fff;}.cls-3{fill:url(#GradientFill_2);}.cls-4{fill:#f26f21;}.cls-5{fill:url(#GradientFill_3);}.cls-6{fill:url(#GradientFill_3-2);}.cls-7{fill:url(#GradientFill_3-3);}.cls-8{fill:url(#GradientFill_3-4);}</style><linearGradient id="GradientFill_1" x1="79.57" y1="41.35" x2="110.82" y2="165.78" gradientUnits="userSpaceOnUse"><stop offset="0" stop-color="#c5c7c9"/><stop offset="0.53" stop-color="#f1f1f2"/><stop offset="0.57" stop-color="#d0d2d3"/><stop offset="1" stop-color="#f1f1f2"/></linearGradient><linearGradient id="GradientFill_2" x1="401.8" y1="31.27" x2="398.78" y2="153.38" gradientUnits="userSpaceOnUse"><stop offset="0" stop-color="#d0d2d3"/><stop offset="1" stop-color="#fff"/></linearGradient><linearGradient id="GradientFill_3" x1="42.5" y1="69.78" x2="-150.48" y2="30.52" gradientUnits="userSpaceOnUse"><stop offset="0" stop-color="#58595b"/><stop offset="1" stop-color="#bbbdbf"/></linearGradient><linearGradient id="GradientFill_3-2" x1="43.08" y1="145.63" x2="-156.23" y2="127.46" xlink:href="#GradientFill_3"/><linearGradient id="GradientFill_3-3" x1="173.46" y1="94.92" x2="45.81" y2="76.69" xlink:href="#GradientFill_3"/><linearGradient id="GradientFill_3-4" x1="89.7" y1="145.89" x2="24.85" y2="138.07" xlink:href="#GradientFill_3"/></defs><g id="Camada_2" data-name="Camada 2"><g id="Camada_1-2" data-name="Camada 1"><polygon class="cls-1" points="0 75.35 14.34 71.76 0 61.63 0 35.47 141.57 0 191.51 35.33 191.51 137.25 177.17 140.83 191.51 150.96 191.51 177.13 49.94 212.6 0.25 177.21 0 75.35"/><path class="cls-2" d="M337.25,106.76v24.17q0,13.9-7,20C325.67,155,318,157,307.34,157H258q-14.9,0-21.83-6.31t-6.91-19.75V63.26c0-10.55,2.14-18,6.43-22.38s11.75-6.51,22.31-6.51h49.36q16.89,0,23.4,6.41c4.35,4.27,6.51,11.78,6.51,22.48V79.21h-48V70.42c0-3.16-.47-5.42-1.41-6.73s-2.51-2-4.7-2a5.13,5.13,0,0,0-4.54,2.07c-.95,1.39-1.42,3.6-1.42,6.68V120.8c0,3,.47,5.29,1.42,6.66a5.09,5.09,0,0,0,4.54,2.08,5.23,5.23,0,0,0,4.62-2.11c1-1.42,1.49-3.6,1.49-6.63v-14Zm57.56-44.09V79.78h5.24c2.46,0,4.22-.62,5.26-1.88s1.57-3.46,1.57-6.56q0-4.89-1.51-6.79c-1-1.26-2.81-1.88-5.32-1.88Zm12.07,93.45V114.86c0-3.2-.5-5.47-1.51-6.73s-2.81-1.94-5.32-1.94h-5.24v49.93H347.59v-121h76.53q16.47,0,23.52,6.71t7.06,22c0,8.15-1.49,14.36-4.52,18.61s-8,7.23-15,9q10.47,2.46,15.05,10.26t4.6,23.28v31.15Zm106-93.45V79.78h5.24c2.46,0,4.23-.62,5.27-1.88s1.56-3.46,1.56-6.56c0-3.26-.49-5.52-1.51-6.79s-2.81-1.88-5.32-1.88Zm0,65.73h5.24c2.56,0,4.35-.62,5.34-1.86s1.49-3.51,1.49-6.81v-4.87c0-3.2-.49-5.47-1.51-6.73s-2.81-1.94-5.32-1.94h-5.24V128.4Zm-47.22,27.72v-121h76.53q16.55,0,23.63,6.74t7.1,22q0,12.15-4.54,18.56c-3,4.27-8.08,7.28-15.1,9q10.47,2.46,15,10.26T572.89,125q0,17.17-6.88,24.17c-4.59,4.65-12.52,7-23.85,7Z"/><path class="cls-3" d="M336.4,107.9v24.17q0,13.89-7,20c-4.62,4.05-12.29,6.09-22.95,6.09H257.13c-9.93,0-17.21-2.12-21.83-6.31s-6.91-10.79-6.91-19.75V64.4c0-10.56,2.14-18,6.43-22.38s11.75-6.51,22.31-6.51h49.36q16.89,0,23.4,6.4T336.4,64.4V80.35h-48v-8.8c0-3.15-.47-5.41-1.41-6.73s-2.51-2-4.7-2a5.11,5.11,0,0,0-4.54,2.06c-.95,1.39-1.42,3.6-1.42,6.68v50.38c0,3.06.47,5.29,1.42,6.66a5.08,5.08,0,0,0,4.54,2.09,5.24,5.24,0,0,0,4.62-2.12c1-1.41,1.49-3.6,1.49-6.63v-14ZM394,63.8V80.92h5.24c2.46,0,4.22-.62,5.26-1.89S406,75.58,406,72.47s-.5-5.51-1.51-6.78-2.81-1.89-5.32-1.89ZM406,157.26V116c0-3.2-.5-5.46-1.51-6.73s-2.81-1.94-5.32-1.94H394v49.94H346.73v-121h76.54c11,0,18.8,2.23,23.52,6.7s7.06,11.8,7.06,22c0,8.15-1.49,14.36-4.52,18.6s-8,7.23-15,9q10.47,2.46,15,10.26T454,126.1v31.16ZM512,63.8V80.92h5.24c2.46,0,4.23-.62,5.27-1.89s1.56-3.45,1.56-6.56-.49-5.51-1.51-6.78-2.81-1.89-5.32-1.89Zm0,65.73h5.24c2.56,0,4.35-.62,5.34-1.86s1.49-3.5,1.49-6.81V116c0-3.2-.49-5.46-1.51-6.73s-2.81-1.94-5.32-1.94H512v22.21Zm-47.22,27.73v-121h76.53q16.55,0,23.63,6.73T572,65q0,12.15-4.54,18.55c-3,4.28-8.08,7.28-15.1,9q10.47,2.46,15.05,10.26T572,126.1q0,17.19-6.88,24.18c-4.59,4.64-12.52,7-23.85,7Z"/><path class="cls-4" d="M264.24,205l-.46.61a17.49,17.49,0,0,1-6.42,5.1,20.26,20.26,0,0,1-8.57,1.78q-9,0-14.22-6a18.34,18.34,0,0,1-4.38-12.28,17,17,0,0,1,5.3-12.7,18.25,18.25,0,0,1,13.25-5.14,22.32,22.32,0,0,1,4.56.45,17.4,17.4,0,0,1,4.11,1.43,17,17,0,0,1,6.37,5.35l.46.62-3.83,2.9-.46-.61a13.62,13.62,0,0,0-4.89-4,14.19,14.19,0,0,0-6.27-1.37,13.76,13.76,0,0,0-6.93,1.83,12.32,12.32,0,0,0-4.89,4.79,13.06,13.06,0,0,0-1.79,6.78,14.47,14.47,0,0,0,1,5.25,13,13,0,0,0,3,4.28,11.45,11.45,0,0,0,2.06,1.66,15.89,15.89,0,0,0,2.32,1.2,16.06,16.06,0,0,0,5.51,1,13.71,13.71,0,0,0,6-1.33,14.68,14.68,0,0,0,5-3.87l.45-.51,3.78,2.85Zm33.43-23.34a18.1,18.1,0,0,1-12.79,30.94,17.83,17.83,0,0,1-12.95-5.25,17.29,17.29,0,0,1-5.25-12.7,18.28,18.28,0,0,1,2.4-9.17,17.78,17.78,0,0,1,15.49-9,18,18,0,0,1,13.1,5.2Zm.31,12.84a13.58,13.58,0,0,0-1.68-6.73,13.55,13.55,0,0,0-11.57-6.57,12.94,12.94,0,0,0-6.53,1.78,13.85,13.85,0,0,0-4.84,4.84,13.42,13.42,0,0,0-1.73,6.83,13.2,13.2,0,0,0,1,5.15,12.73,12.73,0,0,0,2.86,4.23,13,13,0,0,0,9.28,3.83,13.69,13.69,0,0,0,6.72-1.74,12.34,12.34,0,0,0,4.8-4.84,13.2,13.2,0,0,0,1.73-6.78Zm31.29-17h4.8v34.46h-1.84l-20.64-23.66v23.66h-4.95V177.48h1.84l20.79,24v-24Zm27.63,19.93a9.74,9.74,0,0,1,1.68,5.35,9.22,9.22,0,0,1-2.95,6.78,9.91,9.91,0,0,1-7.14,2.85,10.59,10.59,0,0,1-5.86-1.73,15,15,0,0,1-4.74-5.66l-.36-.61,4.08-2.5.41.72a12.49,12.49,0,0,0,3,3.87,5,5,0,0,0,3.16,1.17,5.92,5.92,0,0,0,2.76-.66,4.82,4.82,0,0,0,1.88-1.78,4.57,4.57,0,0,0-.3-5.2,24.71,24.71,0,0,0-5.46-5.1,29.66,29.66,0,0,1-5.3-4.69,8.88,8.88,0,0,1-1.88-5.45,8.33,8.33,0,0,1,1.12-4.34,7.4,7.4,0,0,1,1.38-1.73,9.23,9.23,0,0,1,10.95-1.17,14.4,14.4,0,0,1,4.54,4.43l.46.61-3.88,3-.51-.61a13.33,13.33,0,0,0-2.9-3.06,4.84,4.84,0,0,0-2.5-.66,3.65,3.65,0,0,0-2.7,1,3.26,3.26,0,0,0-1.07,2.44,4.69,4.69,0,0,0,.41,1.79,6,6,0,0,0,1.48,1.93,6.94,6.94,0,0,0,1.07.92c.57.44,1.61,1.21,3.11,2.3a24.82,24.82,0,0,1,6.06,5.86Zm4.74-20.14h24.72V182h-9.89v29.77h-4.89V182h-9.94v-4.74Zm51.88,34.67h-6l-11.83-15.3H395v15.3h-4.85V177.48h7.34c.92,0,1.67,0,2.25.05s1,.08,1.4.13a7.41,7.41,0,0,1,.82.15l.53.13a9.21,9.21,0,0,1,5.15,3.11,8.85,8.85,0,0,1,2,6,9.36,9.36,0,0,1-1.38,5.1,7.93,7.93,0,0,1-1.71,2,9.11,9.11,0,0,1-2.27,1.4c-.57.27-1,.49-1.4.64a9.84,9.84,0,0,1-1.24.43l11.87,15.35Zm-13.66-20a4.71,4.71,0,0,0,1.43-.15,12.22,12.22,0,0,0,1.12-.51,2.37,2.37,0,0,0,.89-.71c.15-.24.37-.55.64-.92a5,5,0,0,0,.76-2.7,4.56,4.56,0,0,0-.76-2.55,5.79,5.79,0,0,0-.87-1,5.91,5.91,0,0,0-.86-.68,4.32,4.32,0,0,0-2.2-.46h-5v9.68l4.89,0Zm41.59-14.68v20.65a39.39,39.39,0,0,1-.2,4.13,17.52,17.52,0,0,1-.66,3.26,10.87,10.87,0,0,1-10.45,7.29,12.74,12.74,0,0,1-7.24-2,10,10,0,0,1-4.13-5.45,15.29,15.29,0,0,1-.48-2.81q-.18-1.78-.18-4.38V177.27H423v20.65c0,1.46,0,2.5,0,3.11a9.14,9.14,0,0,0,.07,1.17l.05.05a6.21,6.21,0,0,0,1,2.91,5.82,5.82,0,0,0,2.5,1.93,7.45,7.45,0,0,0,3.41.82,6.45,6.45,0,0,0,5-2.35,7.93,7.93,0,0,0,1.33-2.7,14,14,0,0,0,.2-1.48c.07-.71.1-1.87.1-3.46V177.27Zm2.65,0h24.72V182h-9.88v29.77H454V182H444.1v-4.74ZM502,181.61a18.1,18.1,0,0,1-12.79,30.94,17.83,17.83,0,0,1-13-5.25A17.29,17.29,0,0,1,471,194.6a18.28,18.28,0,0,1,2.4-9.17,17.82,17.82,0,0,1,15.5-9,18,18,0,0,1,13.09,5.2Zm.31,12.84a13.58,13.58,0,0,0-1.68-6.73A13.55,13.55,0,0,0,489,181.15a12.94,12.94,0,0,0-6.53,1.78,13.85,13.85,0,0,0-4.84,4.84,13.52,13.52,0,0,0-1.73,6.83,13,13,0,0,0,1,5.15A13.07,13.07,0,0,0,489,207.81a13.75,13.75,0,0,0,6.73-1.74,12.38,12.38,0,0,0,4.79-4.84,13.2,13.2,0,0,0,1.73-6.78Zm32.16,17.49h-6l-11.83-15.3h-.71v15.3H511V177.48h7.34c.91,0,1.66,0,2.24.05s1,.08,1.4.13a7.41,7.41,0,0,1,.82.15l.53.13a9.21,9.21,0,0,1,5.15,3.11,8.85,8.85,0,0,1,2,6,9.36,9.36,0,0,1-1.38,5.1,8.1,8.1,0,0,1-1.7,2,9.3,9.3,0,0,1-2.27,1.4l-1.4.64a10.63,10.63,0,0,1-1.25.43l11.87,15.35Zm-13.66-20a4.67,4.67,0,0,0,1.43-.15,11.1,11.1,0,0,0,1.12-.51,2.37,2.37,0,0,0,.89-.71c.16-.24.37-.55.64-.92a5,5,0,0,0,.77-2.7,4.57,4.57,0,0,0-.77-2.55,5.79,5.79,0,0,0-.87-1,5.91,5.91,0,0,0-.86-.68,4.25,4.25,0,0,0-2.19-.46h-5v9.68l4.89,0Zm35.48-14.57,16.11,34.45h-5.26L561.9,201H548.69l-5.14,10.85h-5.36l16.26-34.45Zm3.52,18.91-4.44-9.38-4.43,9.38Z"/><path class="cls-2" d="M576,27.58a7,7,0,0,1,3.32.87,6.13,6.13,0,0,1,2.52,2.5,6.78,6.78,0,0,1,.91,3.38,6.87,6.87,0,0,1-.89,3.36,6.33,6.33,0,0,1-2.5,2.5,6.79,6.79,0,0,1-6.72,0,6.35,6.35,0,0,1-2.51-2.5,6.87,6.87,0,0,1-.89-3.36,6.78,6.78,0,0,1,.91-3.38,6.21,6.21,0,0,1,2.53-2.5,6.92,6.92,0,0,1,3.32-.87Zm0,1.11a5.82,5.82,0,0,0-2.77.73,5.3,5.3,0,0,0-2.11,2.09,5.61,5.61,0,0,0,0,5.62,5.25,5.25,0,0,0,2.09,2.09,5.6,5.6,0,0,0,5.6,0,5.32,5.32,0,0,0,2.09-2.09,5.64,5.64,0,0,0,0-5.62,5.22,5.22,0,0,0-2.1-2.09,5.88,5.88,0,0,0-2.77-.73Zm-3,9.37h1.17V35h.69a1.45,1.45,0,0,1,.93.25,5.6,5.6,0,0,1,1.24,1.69l.64,1.14h1.43l-.89-1.42a7.8,7.8,0,0,0-1.07-1.44,2,2,0,0,0-.62-.38,2.24,2.24,0,0,0,1.51-.67,1.91,1.91,0,0,0,.57-1.38A1.92,1.92,0,0,0,577.43,31a6.32,6.32,0,0,0-1.86-.2h-2.49v7.26ZM574.25,34h1.42a2.3,2.3,0,0,0,1.39-.3,1,1,0,0,0,.38-.8.94.94,0,0,0-.18-.57,1,1,0,0,0-.5-.38,3.74,3.74,0,0,0-1.18-.13h-1.33Z"/><path class="cls-4" d="M49.94,110.68l99.52-24.92v23.95L75.64,128.19V180l115.87-29v26.17L49.94,212.6V110.68Zm141.57,26.56V35.33L49.94,70.79V97l115.88-29v51.8L92,138.21v23.95Z"/><polygon class="cls-5" points="0 35.47 49.94 70.79 49.94 96.96 0 61.63 0 35.47"/><polygon class="cls-6" points="0 75.35 49.94 110.68 49.94 212.6 0.25 177.21 0 75.35"/><polygon class="cls-7" points="165.82 67.93 165.82 119.73 149.46 109.71 149.46 85.76 135.44 75.62 165.82 67.93"/><polygon class="cls-8" points="91.99 138.21 91.99 162.16 75.64 150.59 75.64 128.19 91.99 138.21"/></g></g></svg>